<?xml version="1.0" encoding="UTF-8"?>
<svg version="1.1" xmlns="http://www.w3.org/2000/svg" width="800" height="800">
<path d="M0 0 C12.76334831 5.18511025 19.9799318 15.86447126 25.3671875 28.03515625 C31.51641767 43.48100362 31.084173 58.15229434 29.39112854 74.41898155 C29.15084518 76.72771278 28.91736303 79.03705026 28.6854248 81.34663391 C28.27567078 85.41604859 27.86011492 89.48484528 27.44256592 93.5534668 C26.77347425 100.07370826 26.10927652 106.5944246 25.45277405 113.11594582 C25.22354836 115.37842107 24.9893355 117.64034147 24.75476074 119.90226746 C23.37696628 133.3929072 22.60260776 144.72288964 30.8359375 156.26171875 C34.90424549 160.85358536 40.15673314 163.85211971 45.390625 166.953125 C66.65636582 179.77332875 78.72913524 202.0454472 84.62109375 225.61328125 C85.75904368 230.49761863 86.69909504 235.40117478 87.5 240.3515625 C87.62407227 241.08463623 87.74814453 241.81770996 87.87597656 242.57299805 C89.13978392 251.27145977 88.6875 259.33266131 88.6875 268.3515625 C149.4075 268.3515625 210.1275 268.3515625 272.6875 268.3515625 C265.6955068 289.32754209 265.6955068 289.32754209 261.375 297.2265625 C260.6634375 298.55095337 260.6634375 298.55095337 259.9375 299.90209961 C251.79041313 314.75606279 240.65879263 327.50284503 227.6875 338.3515625 C225.16039375 340.53183967 222.6435963 342.7239654 220.125 344.9140625 C218.8741065 345.99916911 217.62281267 347.08381441 216.37109375 348.16796875 C215.76330078 348.69479248 215.15550781 349.22161621 214.52929688 349.7644043 C213.28527973 350.83642915 212.03643872 351.90287785 210.78320312 352.96411133 C195.85103327 365.61585345 185.60963483 382.13310182 181.6875 401.3515625 C174.69872389 400.73449543 168.34766463 398.40034118 161.734375 396.15234375 C160.45016912 395.72081133 159.16576596 395.28986565 157.88117981 394.85946655 C155.15144008 393.94375078 152.42292291 393.02451551 149.69534302 392.10238647 C143.23353265 389.91809437 136.76557348 387.75211675 130.29826546 385.58416939 C128.13613035 384.8591777 125.97423388 384.13347778 123.81236267 383.40769958 C112.31365992 379.54946672 100.79038862 375.77078878 89.25 372.0390625 C68.21303605 365.2274308 47.23897626 358.23068219 26.26855469 351.21728516 C18.63558627 348.66486573 10.99988038 346.12066784 3.36407471 343.57675171 C-0.01782313 342.44997402 -3.39953057 341.32262552 -6.78125 340.1953125 C-7.85826172 339.83630859 -8.93527344 339.47730469 -10.04492188 339.10742188 C-10.79322266 338.85798828 -11.54152344 338.60855469 -12.3125 338.3515625 C-12.35213867 337.78348877 -12.39177734 337.21541504 -12.43261719 336.63012695 C-13.63657993 320.17874105 -16.11774425 307.24092721 -24.9375 293.171875 C-47.01158785 257.95759317 -47.3980284 217.0322066 -41.86328125 176.9453125 C-41.59708793 174.94961737 -41.33214337 172.95375536 -41.06829834 170.95774841 C-40.48218948 166.53391626 -39.88987988 162.11096898 -39.29397583 157.68844604 C-38.22677862 149.74271723 -37.19359222 141.79268227 -36.16381836 133.84204102 C-35.78453251 130.91515675 -35.40516393 127.9882832 -35.02574158 125.06141663 C-34.88244454 123.95589959 -34.88244454 123.95589959 -34.73625261 122.82804888 C-33.46060737 112.99193596 -32.1715693 103.15757491 -30.88320827 93.32312107 C-30.68189561 91.78629737 -30.48059183 90.2494725 -30.27929688 88.71264648 C-30.12943489 87.56851788 -30.12943489 87.56851788 -29.97654539 86.40127558 C-29.15300063 80.11116857 -28.33366145 73.82051802 -27.51497149 67.52977759 C-26.71299497 61.36951604 -25.90744674 55.20972786 -25.09924817 49.05027956 C-24.62187338 45.41137668 -24.14601896 41.77229125 -23.67409515 38.13267708 C-23.15343195 34.1177955 -22.62538015 30.10391899 -22.09667969 26.09008789 C-21.94498322 24.91163803 -21.79328674 23.73318817 -21.63699341 22.51902771 C-19.35503182 5.33665125 -19.35503182 5.33665125 -13.3125 0.3515625 C-9.21596302 -1.69670599 -4.32152057 -1.21177773 0 0 Z " fill="#000000" transform="translate(242.3125,296.6484375)"/>
<path d="M0 0 C0.8307284 0.27326048 1.66145679 0.54652096 2.51735878 0.82806206 C5.25194479 1.73010744 7.98143873 2.64664613 10.71118164 3.56323242 C12.64485002 4.20401653 14.57885157 4.84379605 16.51316833 5.48262024 C20.51037789 6.80434361 24.50566134 8.13166236 28.49945068 9.46368408 C33.93539699 11.27574042 39.37683986 13.07059531 44.82104492 14.85766602 C46.50924202 15.41199639 48.19743377 15.96634306 49.88562012 16.52070618 C50.71762436 16.79391504 51.5496286 17.06712391 52.40684509 17.34861183 C56.7015699 18.76012085 60.99475486 20.17629203 65.2878418 21.59277344 C66.58502451 22.02076563 66.58502451 22.02076563 67.90841293 22.45740414 C73.39705546 24.26859468 78.88540853 26.08066173 84.37375259 27.89275646 C89.20484816 29.48773856 94.0361103 31.08221561 98.86743164 32.67651367 C99.8305275 32.99437647 100.79362335 33.31223927 101.78590393 33.63973427 C115.57308185 38.18916493 129.36968031 42.7089659 143.17326927 47.2083416 C148.87822838 49.06892154 154.58164966 50.93421124 160.28505802 52.79953861 C165.70502845 54.57149312 171.12751853 56.33545057 176.55195904 58.09366989 C179.90039986 59.181111 183.24632398 60.2761354 186.5915966 61.37327957 C188.13640257 61.87817493 189.6822534 62.37988649 191.22921944 62.87812424 C193.34212654 63.55905976 195.45101662 64.25127157 197.55932617 64.94628906 C198.73729767 65.32958878 199.91526917 65.71288849 201.12893677 66.10780334 C206.81695271 68.40745951 210.87620541 71.37017648 214.37133789 76.41870117 C216.52529773 82.88058068 215.35401915 88.66247025 213.14086914 94.92651367 C212.79242195 95.95843338 212.79242195 95.95843338 212.43693542 97.01119995 C211.69717139 99.1927378 210.94079752 101.3680785 210.18383789 103.54370117 C209.69511949 104.97822674 209.2074815 106.41312085 208.72094727 107.84838867 C207.52699519 111.36028344 206.30753382 114.86272507 205.08184814 118.36364746 C204.36981111 120.42311717 203.68162372 122.4893591 202.99780273 124.55834961 C202.56388516 125.84258488 202.12981074 127.12676716 201.69555664 128.41088867 C201.31874756 129.5463916 200.94193848 130.68189453 200.55371094 131.85180664 C200.16352783 132.69888184 199.77334473 133.54595703 199.37133789 134.41870117 C195.55393023 135.69117039 194.16291788 134.92323944 190.37915039 133.64306641 C189.1350943 133.22716751 187.89103821 132.81126862 186.60928345 132.38276672 C185.23825719 131.91440608 183.86727667 131.44591155 182.49633789 130.97729492 C181.0718437 130.4977586 179.6470635 130.01907116 178.22201538 129.54118347 C175.18516523 128.52103214 172.15020752 127.49550319 169.11663818 126.46563721 C164.35248758 124.84842393 159.58434539 123.24324137 154.81518555 121.64086914 C153.22317456 121.10589745 151.63116406 120.57092431 150.03915405 120.03594971 C149.25426983 119.77222816 148.4693856 119.50850662 147.66071701 119.23679352 C145.28496327 118.43808547 142.90960029 117.638225 140.53433228 116.83807373 C128.62970354 112.82938563 116.70020502 108.90320279 104.74633789 105.04370117 C88.33644185 99.73606778 71.97163082 94.29921598 55.61499023 88.82983398 C39.79840794 83.54254242 23.95979576 78.32894134 8.09628296 73.18426514 C-8.84379284 67.69000482 -25.74525972 62.08455534 -42.62866211 56.41870117 C-43.60223641 52.69238862 -43.6183006 50.3838574 -42.40039062 46.73950195 C-42.1058046 45.84151886 -41.81121857 44.94353577 -41.50770569 44.01834106 C-41.17766037 43.05991302 -40.84761505 42.10148499 -40.50756836 41.11401367 C-40.16999008 40.11667206 -39.8324118 39.11933044 -39.48460388 38.09176636 C-38.76542579 35.98318989 -38.03959261 33.87687328 -37.30761719 31.77270508 C-36.20053024 28.5707956 -35.13360567 25.35730889 -34.06811523 22.14135742 C-33.3628633 20.08973912 -32.65525514 18.03892896 -31.94506836 15.98901367 C-31.63324112 15.03463409 -31.32141388 14.08025452 -31.00013733 13.09695435 C-28.66566915 6.5603561 -25.56626045 2.17223016 -19.62866211 -1.58129883 C-12.93725813 -4.0984884 -6.44281594 -2.19165298 0 0 Z " fill="#000000" transform="translate(225.628662109375,641.581298828125)"/>
<path d="M0 0 C1.69388191 -0.00935994 1.69388191 -0.00935994 3.42198366 -0.01890898 C7.1843247 -0.03479088 10.94601357 -0.02225288 14.70835876 -0.00964355 C17.41442186 -0.01286746 20.12045776 -0.0220465 22.82650757 -0.03088379 C29.4002162 -0.04862294 35.97374163 -0.04484986 42.54745729 -0.03323323 C47.8918365 -0.02418173 53.23616455 -0.0229823 58.58054924 -0.02732849 C59.34259554 -0.02794142 60.10464183 -0.02855436 60.88978044 -0.02918586 C62.43808554 -0.03046482 63.98639061 -0.03176168 65.53469568 -0.03307623 C80.03546056 -0.04446833 94.53612412 -0.03138947 109.03687238 -0.00987476 C121.46810865 0.0079986 133.8991955 0.00488753 146.33042908 -0.0135498 C160.78257802 -0.03497456 175.23463829 -0.04337361 189.6868009 -0.03110075 C191.22894918 -0.02982661 192.77109747 -0.02856913 194.31324577 -0.02732849 C195.45126299 -0.02640284 195.45126299 -0.02640284 196.61227046 -0.02545848 C201.94820105 -0.02201066 207.28407519 -0.02782158 212.61999702 -0.0372467 C219.12556019 -0.04848578 225.6309304 -0.04538658 232.13647158 -0.02412373 C235.45320011 -0.01363908 238.76934231 -0.01161366 242.08610916 -0.02272034 C245.68671328 -0.03366519 249.28641606 -0.01992319 252.88696289 0 C253.92782785 -0.00892289 254.96869281 -0.01784577 256.04109913 -0.02703905 C267.11119603 0.09161659 275.56321688 4.64367797 283.29405212 12.43762207 C294.59935435 25.57101573 293.09339036 42.55184136 293.19248962 58.83605957 C293.20945389 60.72099247 293.20945389 60.72099247 293.22676086 62.64400482 C293.28030655 68.6011031 293.32001214 74.5579943 293.33556843 80.51529813 C293.35353856 87.354701 293.42403473 94.19092473 293.53957081 101.02936101 C293.63671283 106.98860379 293.66735513 112.94705988 293.67427063 118.90712738 C293.68634722 121.42859068 293.71836437 123.95004287 293.77101135 126.47098541 C294.17334 147.19751259 294.17334 147.19751259 289.65489197 152.10009766 C286.90839318 154.43646596 283.11832872 157.50793457 279.37998962 157.50793457 C279.3750244 156.59270696 279.3750244 156.59270696 279.36995888 155.65898991 C279.28859381 140.78460475 279.19645754 125.91031528 279.09246254 111.03607273 C279.04242784 103.84287689 278.99598422 96.64969192 278.95811462 89.4564209 C278.92508253 83.18378158 278.88519014 76.911229 278.83719957 70.63868564 C278.8120455 67.3201284 278.79125569 64.00163862 278.77664566 60.68301582 C278.75971784 56.97031424 278.73066626 53.25788776 278.69883728 49.54528809 C278.69667709 48.45555695 278.69451691 47.36582581 278.69229126 46.24307251 C278.58022023 35.98243117 277.4379241 27.35403003 270.37998962 19.50793457 C263.56962084 14.75766343 257.19156486 13.78426292 249.06369019 13.87974548 C247.967104 13.8726511 246.87051781 13.86555671 245.74070174 13.85824734 C242.08876983 13.84073172 238.43791127 13.85874064 234.78599548 13.87683105 C232.1587577 13.87168986 229.53152337 13.86440708 226.90429688 13.85514832 C220.52304903 13.83682132 214.14210849 13.84525043 207.76087039 13.86323654 C202.57285364 13.87729197 197.38492002 13.88114904 192.19688606 13.87779427 C191.08712095 13.8770781 191.08712095 13.8770781 189.95493634 13.87634747 C188.45172725 13.87532109 186.94851817 13.87426573 185.44530911 13.87318171 C172.16948703 13.8646248 158.89381283 13.8812574 145.61802673 13.91101074 C132.74914846 13.93985155 119.88048316 13.94692763 107.01158142 13.93151855 C92.98132641 13.91474177 78.95117238 13.91073677 64.92091471 13.92822891 C63.42370229 13.93007321 61.92648986 13.93190794 60.42927742 13.93373299 C59.32442952 13.93510112 59.32442952 13.93510112 58.19726146 13.93649689 C53.01762854 13.94209267 47.83804507 13.93880413 42.65841484 13.93218803 C35.68236002 13.92363063 28.70661669 13.93666445 21.7306118 13.96403694 C19.17203938 13.9709175 16.61343833 13.97102232 14.05486679 13.96382141 C10.55933888 13.95511783 7.06475456 13.97109995 3.56930542 13.99327087 C2.05469936 13.98090972 2.05469936 13.98090972 0.5094952 13.96829885 C-6.61172742 14.05152412 -13.05959579 15.26115146 -18.47473961 20.19928354 C-24.77782306 26.92061928 -26.06581401 33.59056285 -26.01873779 42.49900818 C-26.02538462 43.48912527 -26.03203145 44.47924236 -26.03887969 45.49936301 C-26.05749261 48.80823368 -26.05490549 52.11674221 -26.05238342 55.42565918 C-26.0614016 57.80105092 -26.07172895 60.17643801 -26.08326721 62.55181885 C-26.10799368 68.32677414 -26.11908765 74.1016392 -26.12414464 79.87664258 C-26.13076837 86.59860645 -26.15424117 93.32047976 -26.17873976 100.0423984 C-26.22198063 112.02902141 -26.25196278 124.01563925 -26.27357483 136.00231934 C-26.29459262 147.64362127 -26.32187469 159.28488084 -26.3575592 170.92614746 C-26.35975803 171.64417433 -26.36195685 172.3622012 -26.36422231 173.10198646 C-26.37529216 176.70425351 -26.38648493 180.30652017 -26.39773881 183.90878665 C-26.49088566 213.77513239 -26.5622799 243.64149808 -26.62001038 273.50793457 C-29.58784166 272.05124674 -32.4841635 270.49561371 -35.37001038 268.88293457 C-36.16922913 268.43691895 -36.96844788 267.99090332 -37.79188538 267.53137207 C-38.39516663 267.1936377 -38.99844788 266.85590332 -39.62001038 266.50793457 C-39.71132732 236.35839325 -39.7820834 206.20885669 -39.82427169 176.05920754 C-39.82927432 172.49703168 -39.83445163 168.93485611 -39.83973694 165.37268066 C-39.84078618 164.66353745 -39.84183542 163.95439424 -39.84291646 163.22376184 C-39.86030564 151.75239032 -39.89183509 140.28109927 -39.92862156 128.80977543 C-39.96607245 117.03274292 -39.98825498 105.25575246 -39.99636436 93.47866285 C-40.0013528 86.86632846 -40.01381595 80.25414354 -40.0429306 73.64186478 C-40.07012396 67.4153604 -40.07844728 61.18911305 -40.0724411 54.96255493 C-40.07353957 52.68013486 -40.08146979 50.397706 -40.09683228 48.11533737 C-40.11682105 44.99187208 -40.11191667 41.86936907 -40.10102844 38.74588013 C-40.11267981 37.84896285 -40.12433117 36.95204557 -40.13633561 36.02794898 C-40.05111006 26.94316692 -36.83881378 18.23439539 -30.62001038 11.50793457 C-21.52229132 2.98784847 -12.33661387 -0.10598361 0 0 Z " fill="#000000" transform="translate(285.62001037597656,23.4920654296875)"/>
<path d="M0 0 C7.34638522 5.15431866 12.1908213 11.13668416 14 20 C14.93059356 29.55002576 13.14059316 37.45530227 7.0625 45 C2.47071315 49.87632065 -2.93814898 53.77689834 -8.3125 57.734375 C-9.95630158 58.96722619 -11.55893233 60.23894777 -13.15625 61.53125 C-21.2136268 67.927312 -27.57902923 71.39876164 -38 71 C-47.04412287 69.89705819 -53.93654245 66.2641867 -59.59375 59.0859375 C-64.81994518 51.33374799 -65.10227877 42.8625743 -63.63671875 33.73828125 C-60.12147342 21.94905712 -47.40312585 13.99298819 -38 7 C-37.07445312 6.29230469 -36.14890625 5.58460938 -35.1953125 4.85546875 C-24.67108137 -2.93115086 -12.24260664 -6.39954438 0 0 Z " fill="#000000" transform="translate(605,418)"/>
<path d="M0 0 C5.32871656 4.25231581 9.60375677 10.65802713 10.8125 17.4375 C11.70690863 26.6161853 10.08888611 34.5491518 4.375 41.9375 C0.00693619 46.62383982 -5.31012537 50.30420643 -10.43652344 54.10839844 C-12.18180923 55.43318035 -13.87869233 56.80285029 -15.5703125 58.1953125 C-23.7247762 64.86038739 -30.36334521 68.83737323 -41.1875 68.4375 C-48.74917647 67.52387842 -55.27303566 64.84360854 -60.5625 59.25 C-66.46606075 51.46803356 -68.45521546 43.09566212 -67.1875 33.4375 C-63.93455969 21.21491364 -53.53574843 13.97544521 -43.93017578 6.75390625 C-42.32428213 5.54082435 -40.73734349 4.3027572 -39.15234375 3.0625 C-26.75321188 -6.4243182 -13.58338827 -9.11584802 0 0 Z " fill="#000000" transform="translate(608.1875,263.5625)"/>
<path d="M0 0 C7.23482749 4.28060626 12.97652316 10.52926368 15.16015625 18.75 C16.73506741 27.80191659 15.32227756 35.25405108 10.30078125 43.01171875 C2.17937996 53.17945737 -14.36494823 68.4348514 -27.4375 71.0625 C-37.8466877 72.00285322 -45.10488969 71.0536504 -53.1875 64.375 C-58.35590892 59.54521097 -62.00666914 53.70276026 -62.67578125 46.49609375 C-62.91610963 36.7944164 -60.9722244 29.3985464 -54.4375 22.0625 C-52.31865847 20.26410908 -50.20826992 18.55354131 -48 16.875 C-47.38890381 16.40449219 -46.77780762 15.93398438 -46.14819336 15.44921875 C-44.87772444 14.47140705 -43.60565465 13.49567201 -42.33203125 12.52197266 C-40.49816486 11.10923383 -38.68424933 9.67454387 -36.875 8.23046875 C-35.75005437 7.34107706 -34.62505657 6.45175135 -33.5 5.5625 C-32.00146484 4.37140625 -32.00146484 4.37140625 -30.47265625 3.15625 C-21.48369296 -3.04463072 -10.15044146 -4.54098697 0 0 Z " fill="#000000" transform="translate(603.4375,338.9375)"/>
<path d="M0 0 C7.23972662 4.28350492 12.96306182 10.52807174 15.1640625 18.74609375 C16.43606953 26.14119345 16.13738396 33.35094366 12.5625 40.0625 C6.81541598 48.11891458 -0.99154378 53.93990024 -8.81738281 59.82568359 C-11.02935428 61.51432847 -13.16268394 63.29578265 -15.3125 65.0625 C-23.24025741 71.11721583 -30.53591446 71.93324245 -40.4375 71.0625 C-47.52348371 69.83329874 -52.71324229 65.28894259 -57.4375 60.0625 C-62.55987041 52.15378524 -63.56009452 44.05712738 -62.08203125 34.84765625 C-57.47033653 19.7126313 -36.6377224 6.30211009 -23.4375 -0.9375 C-16.27674329 -3.3244189 -6.89561524 -3.12558261 0 0 Z " fill="#000000" transform="translate(603.4375,181.9375)"/>
<path d="M0 0 C4.29 0 8.58 0 13 0 C13.9282012 34.5239278 13.9282012 34.5239278 3.96484375 46.00390625 C-5.59865713 55.71951052 -15.85732701 59.25907112 -29.30793762 59.48101807 C-32.93996401 59.50753861 -36.57044624 59.48287252 -40.20239258 59.45410156 C-42.21413653 59.4529713 -44.22588212 59.45361043 -46.23762512 59.45587158 C-51.66244919 59.45701266 -57.0869148 59.4336019 -62.51165605 59.40557575 C-68.19441266 59.38046058 -73.87717875 59.37821215 -79.5599823 59.37347412 C-90.30483253 59.36107397 -101.04951871 59.32829257 -111.79429692 59.28807616 C-124.03376192 59.24326607 -136.27323502 59.22134822 -148.51276171 59.20129442 C-173.67526519 59.15955723 -198.83762338 59.089263 -224 59 C-224.19393875 56.85473901 -224.37998676 54.70876323 -224.5625 52.5625 C-224.71912109 50.77005859 -224.71912109 50.77005859 -224.87890625 48.94140625 C-224.91886719 47.97074219 -224.95882813 47.00007812 -225 46 C-223.23635047 44.23635047 -220.90152044 44.87596887 -218.55205113 44.86805606 C-217.37018558 44.8717048 -217.37018558 44.8717048 -216.16444397 44.87542725 C-214.91805347 44.87331202 -214.91805347 44.87331202 -213.64648336 44.87115407 C-210.83990782 44.86748098 -208.03338217 44.87084626 -205.22680664 44.87402344 C-203.22320516 44.87262958 -201.21960398 44.87073086 -199.21600342 44.86836243 C-194.88891933 44.86385472 -190.56184475 44.8620091 -186.23475838 44.86190033 C-179.38910125 44.86076245 -172.54349838 44.84794085 -165.69786072 44.83233643 C-163.96638207 44.82847715 -163.96638207 44.82847715 -162.19992405 44.8245399 C-159.83870757 44.81927284 -157.47749112 44.81398736 -155.11627471 44.80868387 C-139.17247907 44.77355742 -123.22874963 44.74701858 -107.28491211 44.74951172 C-96.5405173 44.75110154 -85.79630632 44.73503194 -75.05197042 44.69880509 C-69.36518565 44.68035653 -63.67870771 44.67099231 -57.99189949 44.68328094 C-52.63608579 44.6947408 -47.28082027 44.68295925 -41.92507935 44.65364647 C-39.96358162 44.64702016 -38.00203349 44.64884815 -36.04055595 44.65994453 C-21.66647094 45.05396985 -21.66647094 45.05396985 -9 39 C-1.44049832 30.44872222 -0.74309906 20.95746553 -0.375 9.9375 C-0.31699219 8.49600586 -0.31699219 8.49600586 -0.2578125 7.02539062 C-0.1646177 4.68387133 -0.08127361 2.34196338 0 0 Z " fill="#000000" transform="translate(565,497)"/>
<path d="M0 0 C0.74064697 0.00273926 1.48129395 0.00547852 2.24438477 0.00830078 C8.54618003 0.12865117 14.87965383 0.62965383 19.5625 5.3125 C20.01009062 8.74402811 19.89923185 10.68714085 18.25 13.75 C13.84833698 16.30910641 9.45919721 14.96226693 4.5625 14.3125 C-6.28000503 13.24510313 -16.61660222 16.76255219 -25.21875 23.33984375 C-33.14027934 30.38275276 -37.77848047 38.57963033 -38.81640625 49.18359375 C-39.31006187 60.22963201 -37.24205819 69.76895515 -30.12890625 78.46875 C-22.99799466 86.24193769 -14.93911788 91.76250157 -4.1875 92.55078125 C7.59588857 92.78399415 17.38706313 91.06748331 26.59765625 83.22265625 C35.50141395 74.56671685 38.88941261 64.93881702 39.70410156 52.7578125 C39.97749751 49.55204975 40.16392846 47.72771336 42.43359375 45.36328125 C45.33886542 43.92930312 47.36607338 43.90444554 50.5625 44.3125 C52.21875 45.40625 52.21875 45.40625 53.5625 47.3125 C55.36583029 60.27698264 52.07820835 73.59494652 44.5625 84.3125 C34.73965391 96.92238377 22.74655267 104.79092767 6.83203125 107.05859375 C-10.10602675 108.3739746 -23.41020581 103.82514222 -36.4375 93.3125 C-46.5374654 84.08762185 -52.76505685 70.28480413 -53.59765625 56.69921875 C-54.02998533 42.20679603 -49.6196698 28.94472315 -40.0625 17.9375 C-29.1988135 6.62115989 -15.87339759 -0.11925376 0 0 Z " fill="#000000" transform="translate(411.4375,356.6875)"/>
<path d="M0 0 C20.46 0 40.92 0 62 0 C62 20.46 62 40.92 62 62 C41.54 62 21.08 62 0 62 C0 41.54 0 21.08 0 0 Z M13 13 C13 24.88 13 36.76 13 49 C24.88 49 36.76 49 49 49 C49 37.12 49 25.24 49 13 C37.12 13 25.24 13 13 13 Z " fill="#000000" transform="translate(330,228)"/>
<path d="M0 0 C20.46 0 40.92 0 62 0 C62 20.46 62 40.92 62 62 C41.54 62 21.08 62 0 62 C0 41.54 0 21.08 0 0 Z M13 13 C13 24.88 13 36.76 13 49 C24.88 49 36.76 49 49 49 C49 37.12 49 25.24 49 13 C37.12 13 25.24 13 13 13 Z " fill="#000000" transform="translate(431,123)"/>
<path d="M0 0 C20.46 0 40.92 0 62 0 C62 20.46 62 40.92 62 62 C41.54 62 21.08 62 0 62 C0 41.54 0 21.08 0 0 Z M13 13 C13 24.88 13 36.76 13 49 C24.88 49 36.76 49 49 49 C49 37.12 49 25.24 49 13 C37.12 13 25.24 13 13 13 Z " fill="#000000" transform="translate(330,123)"/>
<path d="M0 0 C4.29 0 8.58 0 13 0 C13 12.87 13 25.74 13 39 C25.54 39 38.08 39 51 39 C51 43.29 51 47.58 51 52 C38.46 52 25.92 52 13 52 C13 64.87 13 77.74 13 91 C8.71 91 4.42 91 0 91 C0 78.13 0 65.26 0 52 C-12.54 52 -25.08 52 -38 52 C-38 47.71 -38 43.42 -38 39 C-25.46 39 -12.92 39 0 39 C0 26.13 0 13.26 0 0 Z " fill="#000000" transform="translate(405,161)"/>
<path d="M0 0 C3.375 0.5625 3.375 0.5625 5.25 1.8125 C7.30403226 5.00766129 7.30403226 5.00766129 7.375 7.5625 C4.60089214 13.00324422 1.15889643 17.51935461 -2.75 22.1875 C-3.92188492 23.60829386 -5.09244466 25.03018172 -6.26171875 26.453125 C-6.83583496 27.15115234 -7.40995117 27.84917969 -8.00146484 28.56835938 C-11.07320056 32.34128228 -14.01047365 36.21375209 -16.9609375 40.08203125 C-20.76549138 45.06836919 -24.63885338 50.00151749 -28.49902344 54.94482422 C-32.7129802 60.35432017 -36.82560759 65.82719879 -40.85546875 71.375 C-42.625 73.5625 -42.625 73.5625 -45.625 75.5625 C-49.12689441 75.6583852 -51.56374107 75.46971521 -54.296875 73.13330078 C-56.01278442 71.19613484 -57.57826581 69.19969921 -59.125 67.125 C-59.96538818 66.03771606 -59.96538818 66.03771606 -60.82275391 64.9284668 C-61.93335676 63.48236597 -63.03470145 62.0291006 -64.12597656 60.56835938 C-65.41299066 58.84619198 -66.73092115 57.14720542 -68.0546875 55.453125 C-72.69764633 49.29980606 -72.69764633 49.29980606 -72.36328125 45.90625 C-71.51527927 43.21418022 -70.99074194 42.11246886 -68.625 40.5625 C-65.75 40.0625 -65.75 40.0625 -62.625 40.5625 C-58.97845389 43.86402217 -55.89783402 47.55286979 -52.8125 51.375 C-52.02230469 52.35082031 -51.23210937 53.32664062 -50.41796875 54.33203125 C-49.82628906 55.06808594 -49.23460937 55.80414063 -48.625 56.5625 C-45.13795229 53.19801987 -42.10398419 49.74174247 -39.1875 45.875 C-38.31308397 44.72351464 -37.43804766 43.57250014 -36.5625 42.421875 C-36.09328125 41.80376953 -35.6240625 41.18566406 -35.140625 40.54882812 C-32.34762525 36.88841479 -29.5162887 33.25778049 -26.6875 29.625 C-26.09404785 28.8626001 -25.5005957 28.1002002 -24.88916016 27.31469727 C-21.12014654 22.47551439 -17.34666314 17.63984716 -13.5625 12.8125 C-13.13396729 12.264729 -12.70543457 11.71695801 -12.26391602 11.15258789 C-11.05791896 9.61705481 -9.84158387 8.08965894 -8.625 6.5625 C-8.19928711 6.00119385 -7.77357422 5.4398877 -7.33496094 4.86157227 C-4.02657557 0.62481345 -4.02657557 0.62481345 0 0 Z " fill="#000000" transform="translate(459.625,356.4375)"/>
<path d="M0 0 C10.23 0 20.46 0 31 0 C31 4.95 31 9.9 31 15 C26.05 15 21.1 15 16 15 C16 20.28 16 25.56 16 31 C20.95 31 25.9 31 31 31 C31 35.95 31 40.9 31 46 C26.05 46 21.1 46 16 46 C16 51.28 16 56.56 16 62 C10.72 62 5.44 62 0 62 C0 56.72 0 51.44 0 46 C4.95 46 9.9 46 15 46 C15 41.05 15 36.1 15 31 C10.05 31 5.1 31 0 31 C0 20.77 0 10.54 0 0 Z " fill="#000000" transform="translate(431,228)"/>
<path d="M0 0 C4.29 0 8.58 0 13 0 C13.07421905 5.19609458 13.12863446 10.39187983 13.16479492 15.58837891 C13.17987102 17.35568619 13.20033522 19.12295614 13.22631836 20.89013672 C13.26275402 23.43205995 13.27973794 25.97348806 13.29296875 28.515625 C13.30845261 29.30430969 13.32393646 30.09299438 13.33988953 30.90557861 C13.34088934 34.1727867 13.23591581 36.56253219 11.66918945 39.46777344 C8.01339385 42.8235981 3.48231062 42.12874729 -1.16796875 42.09765625 C-2.36018791 42.09553383 -2.36018791 42.09553383 -3.57649231 42.09336853 C-6.11353325 42.08777378 -8.65048575 42.07522228 -11.1875 42.0625 C-12.90820185 42.05748432 -14.62890508 42.05292153 -16.34960938 42.04882812 C-20.5664403 42.03780607 -24.78320516 42.02054506 -29 42 C-29 37.71 -29 33.42 -29 29 C-19.43 29 -9.86 29 0 29 C0 19.43 0 9.86 0 0 Z " fill="#000000" transform="translate(506,272)"/>
<path d="M0 0 C4.29 0 8.58 0 13 0 C13 9.57 13 19.14 13 29 C22.57 29 32.14 29 42 29 C42 33.29 42 37.58 42 42 C36.96463223 42.07432418 31.92958592 42.12868401 26.89379883 42.16479492 C25.18182816 42.1798534 23.46989589 42.20030455 21.75805664 42.22631836 C19.29303495 42.2628319 16.82852465 42.27975562 14.36328125 42.29296875 C13.22080681 42.31619453 13.22080681 42.31619453 12.05525208 42.33988953 C7.518017 42.34131672 4.59613583 41.83257569 1 39 C-0.61301773 35.77396455 -0.12053599 32.25289962 -0.09765625 28.7109375 C-0.0962413 27.89251373 -0.09482635 27.07408997 -0.09336853 26.23086548 C-0.0877629 23.61220675 -0.07520948 20.99363296 -0.0625 18.375 C-0.05748572 16.60156373 -0.05292269 14.82812613 -0.04882812 13.0546875 C-0.03779164 8.70309218 -0.02052325 4.3515605 0 0 Z " fill="#000000" transform="translate(304,272)"/>
<path d="M0 0 C5.49918389 -0.12352165 10.99756218 -0.2143009 16.49780273 -0.2746582 C18.36903954 -0.29981578 20.24017795 -0.33394593 22.11108398 -0.37719727 C24.79956303 -0.43779677 27.48674436 -0.46619603 30.17578125 -0.48828125 C31.01337479 -0.51408768 31.85096832 -0.5398941 32.71394348 -0.56648254 C38.42355646 -0.56924492 38.42355646 -0.56924492 41.03320312 2.0078125 C42.27063839 5.83761214 42.3738404 9.38521142 42.29296875 13.36328125 C42.28872391 14.15526413 42.28447906 14.94724701 42.28010559 15.76322937 C42.26338163 18.28000627 42.22574225 20.79596724 42.1875 23.3125 C42.17244499 25.02407693 42.15875801 26.73566649 42.14648438 28.44726562 C42.11349885 32.63182233 42.06176098 36.81577307 42 41 C37.71 41 33.42 41 29 41 C29 31.76 29 22.52 29 13 C19.43 13 9.86 13 0 13 C0 8.71 0 4.42 0 0 Z " fill="#000000" transform="translate(477,100)"/>
<path d="M0 0 C0.83759354 0.02580643 1.67518707 0.05161285 2.53816223 0.07820129 C3.8302636 0.0888134 3.8302636 0.0888134 5.14846802 0.09963989 C7.90034262 0.12763415 10.65018381 0.19037932 13.40144348 0.25398254 C15.26664847 0.27905903 17.13188536 0.30187333 18.99714661 0.32234192 C23.57019596 0.37747704 28.14172498 0.46378222 32.71394348 0.56648254 C32.71394348 4.85648254 32.71394348 9.14648254 32.71394348 13.56648254 C23.14394348 13.56648254 13.57394348 13.56648254 3.71394348 13.56648254 C3.71394348 22.80648254 3.71394348 32.04648254 3.71394348 41.56648254 C-0.57605652 41.56648254 -4.86605652 41.56648254 -9.28605652 41.56648254 C-9.3603807 36.53111477 -9.41474053 31.49606846 -9.45085144 26.46028137 C-9.46590992 24.7483107 -9.48636107 23.03637843 -9.51237488 21.32453918 C-9.54888841 18.8595175 -9.56581214 16.39500719 -9.57902527 13.92976379 C-9.59450912 13.16811417 -9.60999298 12.40646454 -9.62594604 11.62173462 C-9.62696144 8.39365662 -9.31294709 5.6497075 -8.31925964 2.57429504 C-5.68850878 -0.02360302 -3.60597015 -0.00174461 0 0 Z " fill="#000000" transform="translate(313.2860565185547,99.43351745605469)"/>
<path d="M0 0 C5.28 0 10.56 0 16 0 C16 10.23 16 20.46 16 31 C5.77 31 -4.46 31 -15 31 C-15 25.72 -15 20.44 -15 15 C-10.05 15 -5.1 15 0 15 C0 10.05 0 5.1 0 0 Z " fill="#000000" transform="translate(477,259)"/>
<path d="M0 0 C8.91 0 17.82 0 27 0 C27 4.29 27 8.58 27 13 C18.09 13 9.18 13 0 13 C0 8.71 0 4.42 0 0 Z " fill="#000000" transform="translate(468,200)"/>
<path d="M0 0 C8.91 0 17.82 0 27 0 C27 4.29 27 8.58 27 13 C18.09 13 9.18 13 0 13 C0 8.71 0 4.42 0 0 Z " fill="#000000" transform="translate(328,200)"/>
<path d="M0 0 C4.29 0 8.58 0 13 0 C13 8.58 13 17.16 13 26 C8.71 26 4.42 26 0 26 C0 17.42 0 8.84 0 0 Z " fill="#000000" transform="translate(405,123)"/>
<path d="M0 0 C4.29 0 8.58 0 13 0 C13 8.25 13 16.5 13 25 C8.71 25 4.42 25 0 25 C0 16.75 0 8.5 0 0 Z " fill="#000000" transform="translate(405,265)"/>
<path d="M0 0 C2.9375 1.5625 2.9375 1.5625 5 4 C6.14888518 7.94929279 6.43129396 10.02958859 4.75 13.8125 C2.74516427 16.31854466 1.11692075 17.82310279 -2.12109375 18.3359375 C-8.29589491 18.44006568 -8.29589491 18.44006568 -11.5 16.4375 C-13.50133412 13.18533206 -13.93311096 10.81267501 -14 7 C-11.13081353 0.54433044 -6.81402188 -1.0493328 0 0 Z " fill="#FFFFFF" transform="translate(24,132)"/>
<path d="M0 0 C3.52727646 1.95125932 4.70999803 3.09132717 5.9375 6.9375 C6.02378408 11.16541994 5.19556764 13.61314154 2.4375 16.8125 C-1.33046387 18.6481747 -4.89300038 18.66436759 -9 18 C-12.40066339 15.87458538 -12.88251741 14.4307695 -13.9375 10.5625 C-14.00754154 6.57013213 -13.46465254 5.08081567 -11 2 C-7.29916667 -0.46722222 -4.29337257 -0.66953179 0 0 Z " fill="#FFFFFF" transform="translate(31,300)"/>
<path d="M0 0 C3.6815625 -0.0309375 3.6815625 -0.0309375 7.4375 -0.0625 C8.21150146 -0.071604 8.98550293 -0.08070801 9.78295898 -0.09008789 C11.52221717 -0.09724913 13.26145304 -0.05024702 15 0 C16 1 16 1 16.1328125 4.125 C16.13023437 5.40375 16.12765625 6.6825 16.125 8 C16.12886719 9.918125 16.12886719 9.918125 16.1328125 11.875 C16 15 16 15 15 16 C12.4672235 16.07320163 9.96896082 16.09227569 7.4375 16.0625 C4.983125 16.041875 2.52875 16.02125 0 16 C0 10.72 0 5.44 0 0 Z " fill="#000000" transform="translate(462,243)"/>
<path d="M0 0 C5.28 0 10.56 0 16 0 C16 4.95 16 9.9 16 15 C10.72 15 5.44 15 0 15 C0 10.05 0 5.1 0 0 Z " fill="#000000" transform="translate(477,228)"/>
</svg>
